<svg xmlns="http://www.w3.org/2000/svg" viewBox="0 0 506.79 132"><defs><style>.cls-1{fill:#272622;}.cls-2{fill:#c62827;}</style></defs><title>Recurso 5</title><g id="Capa_2" data-name="Capa 2"><g id="Capa_1-2" data-name="Capa 1"><path class="cls-1" d="M338.91,0a12.37,12.37,0,0,0-7.16,2.25h-.2L293.88,40.13a12,12,0,0,1-8.19,3.27,12.29,12.29,0,0,1-8.39-3.27L240.87,3.49l-1.64-1.43v.2A12.4,12.4,0,0,0,232.06,0a12.24,12.24,0,0,0-9,3.68,12.25,12.25,0,0,0-3.69,9V118.94a12.16,12.16,0,0,0,3.72,9,13,13,0,0,0,18.15,0,12.16,12.16,0,0,0,3.72-9V43L261.5,59.57a32.38,32.38,0,0,0,11,7.58,34,34,0,0,0,13.28,2.66A33.21,33.21,0,0,0,299,67.15a34.78,34.78,0,0,0,11.13-7.58L326.43,43.2v75.74a12.39,12.39,0,0,0,3.58,9,11.91,11.91,0,0,0,8.9,3.69,12.6,12.6,0,0,0,12.7-12.69V12.7a12.25,12.25,0,0,0-3.69-9A12.27,12.27,0,0,0,338.91,0Z"/><path class="cls-1" d="M387.83,25.63c.46,0,.92,0,1.36-.07a9.79,9.79,0,0,0,1.08.07H496.64a8.93,8.93,0,0,0,7.17-3.69,13.81,13.81,0,0,0,3-9,14.25,14.25,0,0,0-3-9.11A8.85,8.85,0,0,0,496.64,0H390.27a9.79,9.79,0,0,0-1.08.07c-.44,0-.9-.07-1.36-.07a12.23,12.23,0,0,0-9,3.79A12.44,12.44,0,0,0,375,12.94a12.09,12.09,0,0,0,3.76,9A12.41,12.41,0,0,0,387.83,25.63Z"/><path class="cls-1" d="M496.64,53H420.27a8.87,8.87,0,0,0-7.17,3.79,14.31,14.31,0,0,0-3,9.11,13.87,13.87,0,0,0,3,9,9,9,0,0,0,7.17,3.69h76.37a8.93,8.93,0,0,0,7.17-3.69,13.81,13.81,0,0,0,3-9,14.25,14.25,0,0,0-3-9.11A8.85,8.85,0,0,0,496.64,53Z"/><path class="cls-1" d="M496.64,106H420.27a8.87,8.87,0,0,0-7.17,3.79,14.31,14.31,0,0,0-3,9.11,13.87,13.87,0,0,0,3,9,9,9,0,0,0,7.17,3.69h76.37a8.93,8.93,0,0,0,7.17-3.69,13.81,13.81,0,0,0,3-9,14.25,14.25,0,0,0-3-9.11A8.85,8.85,0,0,0,496.64,106Z"/><path class="cls-1" d="M387.83,106a12.23,12.23,0,0,0-9,3.79,12.44,12.44,0,0,0-3.76,9.11,12.09,12.09,0,0,0,3.76,9,12.91,12.91,0,0,0,18.07,0,12.12,12.12,0,0,0,3.76-9,12.48,12.48,0,0,0-3.76-9.11A12.25,12.25,0,0,0,387.83,106Z"/><path class="cls-1" d="M175.7,0a11.7,11.7,0,0,0-9,4.06A14,14,0,0,0,163,13.83v104a14,14,0,0,0,3.68,9.77,11.7,11.7,0,0,0,9,4.06,12,12,0,0,0,9.11-4.06,13.83,13.83,0,0,0,3.78-9.77v-104a13.83,13.83,0,0,0-3.78-9.77A12,12,0,0,0,175.7,0Z"/><path class="cls-1" d="M387.83,53a12.27,12.27,0,0,0-9,3.79A12.46,12.46,0,0,0,375,65.92a12.12,12.12,0,0,0,3.76,9,12.93,12.93,0,0,0,18.07,0,12.16,12.16,0,0,0,3.76-9,12.5,12.5,0,0,0-3.76-9.11A12.29,12.29,0,0,0,387.83,53Z"/><polygon class="cls-2" points="26 26 53 26 53 0 26 0 0 0 0 26 0 52.83 26 52.83 26 26"/><polygon class="cls-1" points="26 106 26 78.83 0 78.83 0 106 0 132 26 132 53 132 53 106 26 106"/><path class="cls-2" d="M106,106H79v26h27a26,26,0,0,0,26-26V78.83H106Z"/><path class="cls-1" d="M106,0H79V26h27V52.83h26V26h0A26,26,0,0,0,106,0Z"/></g></g></svg>