<svg width="499" height="499" viewBox="0 0 499 499" fill="none" xmlns="http://www.w3.org/2000/svg">
<rect x="399.2" y="399.2" width="99.8" height="99.8" fill="#666092"/>
<rect x="199.6" y="399.2" width="99.8" height="99.8" fill="#416AA3"/>
<rect x="399.2" y="199.6" width="99.8" height="99.8" fill="#8B5580"/>
<rect x="299.4" y="299.4" width="99.8" height="99.8" fill="#9A4F50"/>
<rect x="399.2" y="299.4" width="99.8" height="99.8" fill="#68ACA9"/>
<rect x="299.4" y="399.2" width="99.8" height="99.8" fill="#BE955C"/>
<rect x="199.6" y="399.2" width="99.8" height="99.8" fill="#666092"/>
<rect y="399.2" width="99.8" height="99.8" fill="#416AA3"/>
<rect x="199.6" y="199.6" width="99.8" height="99.8" fill="#8B5580"/>
<rect x="99.7999" y="299.4" width="99.8" height="99.8" fill="#9A4F50"/>
<rect x="199.6" y="299.4" width="99.8" height="99.8" fill="#68ACA9"/>
<rect x="99.7999" y="399.2" width="99.8" height="99.8" fill="#BE955C"/>
<rect x="399.2" y="199.6" width="99.8" height="99.8" fill="#666092"/>
<rect x="199.6" y="199.6" width="99.8" height="99.8" fill="#416AA3"/>
<rect x="399.2" width="99.8" height="99.8" fill="#8B5580"/>
<rect x="299.4" y="99.8003" width="99.8" height="99.8" fill="#9A4F50"/>
<rect x="399.2" y="99.8003" width="99.8" height="99.8" fill="#68ACA9"/>
<rect x="299.4" y="199.6" width="99.8" height="99.8" fill="#BE955C"/>
</svg>
